<svg xmlns="http://www.w3.org/2000/svg" xmlns:xlink="http://www.w3.org/1999/xlink" xmlns:serif="http://www.serif.com/" width="100%" height="100%" viewBox="0 0 2645 1041" xml:space="preserve" style="fill-rule:evenodd;clip-rule:evenodd;stroke-linejoin:round;stroke-miterlimit:2;"><path d="M1137.41,640.91c18.719,-3.688 28.094,-19.625 28.094,-47.875l-0,-225.125c-0,-28.563 -9.375,-44.5 -28.094,-47.875l110.5,-0c-18.719,3.375 -28.094,19.344 -28.094,47.875l0,263.344l70.907,-0c20.562,-0 37.75,-6.5 51.562,-19.563c13.813,-13.031 21.938,-30.312 24.406,-51.781l0,40.5l-10.593,40.531l-218.688,0l0,-0.031Z" style="fill:url(#_Linear1);fill-rule:nonzero;"></path><path d="M1385.12,640.91c18.719,-3.688 28.094,-19.625 28.094,-47.875l-0,-225.125c-0,-28.563 -9.375,-44.5 -28.094,-47.875l110.5,-0c-18.719,3.375 -28.094,19.344 -28.094,47.875l0,225.125c0,28.25 9.344,44.187 28.094,47.875l-110.5,-0Z" style="fill:url(#_Linear2);fill-rule:nonzero;"></path><path d="M1957.41,320.004l10.594,40.062l-0,40.531c-1.531,-14.125 -5.75,-26.531 -12.656,-37.281c-6.907,-10.75 -15.813,-19.031 -26.719,-24.875c-10.906,-5.812 -23.094,-8.75 -36.594,-8.75l-200.75,0l0,263.344c0,28.25 9.344,44.187 28.094,47.875l-110.5,-0c18.719,-3.688 28.094,-19.625 28.094,-47.875l-0,-263.344l-46.5,0c-13.5,0 -25.719,2.938 -36.594,8.75c-10.906,5.844 -19.781,14.125 -26.719,24.875c-6.906,10.75 -11.125,23.188 -12.656,37.281l0,-40.531l10.594,-40.062l432.312,-0Zm-65.375,311.25c20.563,-0 37.75,-6.5 51.563,-19.563c13.812,-13.031 21.937,-30.312 24.406,-51.781l-0,40.5l-10.594,40.531l-218.687,0c18.718,-3.687 28.093,-19.625 28.093,-47.875l0,-225.125l54.344,0l0,107.719l35.438,-0c7.968,-0 14.718,-0.469 20.25,-1.375c5.531,-0.938 10.875,-2.469 16.125,-4.594c5.218,-2.156 9.5,-5.062 12.906,-8.75c3.375,-3.687 6.281,-8.531 8.75,-14.5c2.469,-6 4.156,-13.125 5.062,-21.406l0,110.5c-2.468,-19.625 -8.593,-32.906 -18.406,-39.813c-9.812,-6.906 -24.719,-10.343 -44.656,-10.343l-35.438,-0l0,145.937l70.907,0l-0.063,-0.062Z" style="fill:url(#_Linear3);fill-rule:nonzero;"></path><path d="M0,1039.6l0,-102.281l7.25,0l0,96.531l50.031,0l0,5.75l-57.281,0Z" style="fill:#fff;fill-rule:nonzero;"></path><path d="M249.906,937.316l7.344,0l-0,73.531c-1.344,7.813 -5.469,14.438 -12.344,19.875c-8.218,6.532 -18.156,9.782 -29.781,9.782c-11.625,-0 -21.625,-3.25 -29.844,-9.782c-8.219,-6.531 -12.343,-14.375 -12.343,-23.593l-0,-69.813l7.343,0l0,69.813c0,7.593 3.406,14.062 10.219,19.468c6.813,5.407 15.031,8.094 24.656,8.094c9.625,0 17.844,-2.687 24.625,-8.094c6.781,-5.406 10.156,-11.875 10.156,-19.468l0,-69.813l-0.031,0Z" style="fill:#fff;fill-rule:nonzero;"></path><path d="M372.531,1039.6l40.906,-56.187l-33.562,-46.094l8.312,0l29.375,40.406l29.532,-40.406l8.312,0l-33.718,46.094l41.062,56.187l-8.312,0l-36.876,-50.5l-36.812,50.5l-8.219,0Z" style="fill:#fff;fill-rule:nonzero;"></path><path d="M655.031,937.316l7.344,0l-0,73.531c-1.344,7.813 -5.469,14.438 -12.344,19.875c-8.219,6.532 -18.156,9.782 -29.781,9.782c-11.625,-0 -21.625,-3.25 -29.844,-9.782c-8.218,-6.531 -12.343,-14.375 -12.343,-23.593l-0,-69.813l7.343,0l0,69.813c0,7.593 3.407,14.062 10.219,19.468c6.813,5.407 15.031,8.094 24.656,8.094c9.625,0 17.844,-2.687 24.625,-8.094c6.782,-5.406 10.157,-11.875 10.157,-19.468l-0,-69.813l-0.032,0Z" style="fill:#fff;fill-rule:nonzero;"></path><path d="M817.125,1004.07c-0.688,0.031 -1.438,0.063 -2.188,0.063l-21.937,-0l0,35.468l-7.25,0l0,-102.281l33.906,0c9.844,1.063 18.219,4.313 25.094,9.781c8.219,6.532 12.344,14.375 12.344,23.594c-0,9.219 -4.125,17.125 -12.344,23.656c-5.719,4.532 -12.25,7.469 -19.625,8.875l29.781,36.375l-8.968,0l-28.813,-35.531Zm-24.125,-60.969l-0,55.188l21.937,-0c9.563,-0 17.782,-2.688 24.563,-8.094c6.812,-5.406 10.219,-11.906 10.219,-19.531c-0,-7.625 -3.407,-14.125 -10.219,-19.5c-6.813,-5.375 -15,-8.063 -24.563,-8.063l-21.937,0Z" style="fill:#fff;fill-rule:nonzero;"></path><path d="M1008.28,998.254l-44.375,-60.938l8.313,0l39.687,54.531l39.781,-54.531l8.313,0l-44.469,60.938l0,41.375l-7.25,-0l0,-41.375Z" style="fill:#fff;fill-rule:nonzero;"></path><path d="M1363,1004.07c-0.688,0.031 -1.438,0.063 -2.188,0.063l-21.937,-0l-0,35.468l-7.25,0l-0,-102.281l33.906,0c9.844,1.063 18.219,4.313 25.094,9.781c8.219,6.532 12.344,14.375 12.344,23.594c-0,9.219 -4.125,17.125 -12.344,23.656c-5.719,4.532 -12.25,7.469 -19.625,8.875l29.781,36.375l-8.969,0l-28.812,-35.531Zm-24.125,-60.969l-0,55.188l21.937,-0c9.563,-0 17.782,-2.688 24.563,-8.094c6.812,-5.406 10.219,-11.906 10.219,-19.531c-0,-7.625 -3.407,-14.125 -10.219,-19.5c-6.813,-5.375 -15,-8.063 -24.563,-8.063l-21.937,0Z" style="fill:#fff;fill-rule:nonzero;"></path><path d="M1583.19,937.285l0,5.781l-57.281,0l0,42.5l57.281,0l0,5.75l-57.281,0l0,42.5l57.281,0l0,5.75l-64.562,0l-0,-102.281l64.562,-0Z" style="fill:#fff;fill-rule:nonzero;"></path><path d="M1766.91,1000.41l-44.718,-0l-18,39.187l-7.751,0l48.094,-104.656l48,104.656l-7.656,0l-18,-39.187l0.031,-0Zm-2.656,-5.75l-19.688,-42.906l-19.687,42.906l39.375,-0Z" style="fill:#fff;fill-rule:nonzero;"></path><path d="M1907.88,1039.6l-0,-102.281l7.25,0l0,96.531l50.031,0l0,5.75l-57.281,0Z" style="fill:#fff;fill-rule:nonzero;"></path><path d="M2108.88,943.066l-0,96.531l-7.25,0l-0,-96.531l-32.688,0l0,-5.75l72.625,0l0,5.75l-32.687,0Z" style="fill:#fff;fill-rule:nonzero;"></path><rect x="2258.47" y="937.316" width="7.25" height="102.281" style="fill:#fff;fill-rule:nonzero;"></rect><path d="M2455.25,937.285l-0,5.781l-57.281,0l-0,42.5l57.281,0l-0,5.75l-57.281,0l-0,42.5l57.281,0l-0,5.75l-64.563,0l0,-102.281l64.563,-0Z" style="fill:#fff;fill-rule:nonzero;"></path><path d="M2608.72,982.972c-9.188,-2.437 -16.469,-5.75 -21.782,-9.968c-5.312,-4.219 -8,-9.344 -8,-15.344c0,-6 2.657,-10.938 8,-15.188c5.313,-4.25 11.782,-6.375 19.375,-6.375c7.594,0 14,2.094 19.375,6.344c2.969,2.25 5,4.781 6.126,7.594l-6.532,2.031c-0.968,-2.094 -2.562,-4 -4.75,-5.75c-3.937,-3.062 -8.656,-4.594 -14.187,-4.594c-5.532,0 -10.282,1.563 -14.188,4.625c-3.937,3.094 -5.875,6.844 -5.875,11.282c0,4.437 1.969,8.156 5.875,11.25c3.657,2.843 8.719,5.468 15.157,7.875c10.343,2.656 19.031,6.75 26.062,12.343c7.469,5.875 11.219,13 11.219,21.344c-0,8.344 -3.75,15.563 -11.219,21.469c-7.469,5.937 -16.5,8.875 -27.031,8.875c-10.532,-0 -19.563,-3 -27.031,-8.938c-5.969,-4.718 -9.563,-10.218 -10.719,-16.5l6.875,-1.968c0.75,5.531 3.75,10.375 8.969,14.5c6.093,4.812 13.406,7.218 21.937,7.218c8.531,0 15.938,-2.406 22.031,-7.218c6.094,-4.813 9.125,-10.625 9.125,-17.438c0,-6.812 -3.031,-12.562 -9.125,-17.375c-5.312,-4.219 -11.875,-7.594 -19.625,-10.094l-0.062,0Z" style="fill:#fff;fill-rule:nonzero;"></path><path d="M918.031,102.816c2.313,7.531 3.75,15.406 4.219,23.594l63.281,-0c53.938,-0 65.906,57.344 68.375,89.375l21.469,-0l-0,-112.969l-157.344,0Z" style="fill:url(#_Linear4);fill-rule:nonzero;"></path><path d="M985.531,638.472l-165.219,0l0,23.594l255.063,0l-0,-112.969l-21.469,0c-2.469,32.032 -14.469,89.375 -68.375,89.375Z" style="fill:url(#_Linear5);fill-rule:nonzero;"></path><path d="M820.312,371.254l0,22.312l52.563,0c35.812,0 55.937,38.875 58.375,83.063l21.625,-0l-0,-188.438l-21.625,0c-2.438,44.125 -22.531,83.063 -58.375,83.063l-52.563,-0Z" style="fill:url(#_Linear6);fill-rule:nonzero;"></path><path d="M753.594,59.504c14.781,-1.688 22.5,-11.094 24.531,-21.844c2.344,10.75 9.75,20.156 24.531,21.844c11.75,1.687 32.25,-5.375 28.875,-20.157c-1,-5.031 -4.687,-9.062 -9.75,-10.406c-4.031,-0.656 -7.719,1 -9.75,4.031c-2.343,3.032 -2.343,7.375 -0.344,10.407c-9.406,6.718 -20.812,3.031 -25.187,-5.375c-5.031,-10.407 2,-24.532 13.438,-26.532c-1.344,1.344 -2,3.688 -2.344,5.719c-0.656,3.344 0.687,6.719 3.343,8.719c2.688,2.344 6.376,2.687 9.407,1.344c5.375,-1.688 9.062,-6.375 9.406,-11.75c0.344,-5.375 -2.344,-10.407 -7.375,-13.094c-17.813,-8.063 -31.25,5.375 -34.25,21.5c-3.031,-16.125 -16.125,-29.563 -34.25,-21.5c-4.687,2.687 -7.719,7.719 -7.375,13.094c0.656,5.375 4.375,10.062 9.406,11.75c3.032,1.343 6.719,1 9.407,-1.344c2.687,-2 4.031,-5.375 3.343,-8.719c0,-2 -0.687,-4.375 -2.031,-5.719c11.406,2 18.469,16.125 13.094,26.532c-4.375,8.406 -15.782,12.093 -25.188,5.375c2,-3.032 2,-7.375 0,-10.407c-2.344,-3.031 -6.031,-4.687 -9.75,-4.031c-5.031,1.344 -9.062,5.375 -10.062,10.406c-3.032,14.782 17.468,21.844 28.875,20.157Z" style="fill:url(#_Linear7);fill-rule:nonzero;"></path><path d="M803.312,171.722c-7.718,-3.343 -16.468,-4.375 -23.187,-4.031c11.094,-1 20.812,-6.719 28.219,-15.781c-10.063,33.937 33.937,43.344 47.375,24.844c3.343,-4.688 4.687,-10.75 3.343,-16.125c-2.031,-5.032 -7.062,-8.063 -12.093,-7.063c-5.375,1 -9.063,5.719 -9.063,10.75c8.063,12.75 -25.531,16.469 -21.156,-11.094c2.687,-18.125 21.156,-40.656 54.406,-35.593c-15.437,-9.407 -28.562,-8.063 -38.969,-1.344c11.407,-10.063 25.532,-16.125 43,-16.781c-21.843,-11.75 -45.687,3.343 -54.093,23.5c0.343,-3.688 0.687,-7.375 0.687,-11.407c0,-6.718 -0.687,-13.093 -2.344,-19.156c4.032,2.688 9.063,3.031 14.094,1.688c5.375,-1.344 9.406,-6.375 9.406,-12.094c-0.343,-5.719 -4.375,-10.75 -10.062,-11.75c-3.031,-0.344 -5.719,0.344 -8.406,2c14.437,-28.219 55.437,-11.406 63.5,13.437c8.406,26.188 -11.407,59.469 -28.219,48.032c-1.688,-4.688 -6.375,-7.719 -11.406,-7.063c-5.032,0.688 -8.719,4.688 -9.063,9.75c0,6.719 4.375,12.75 11.094,14.438c42,10.406 61.813,-46.032 37.969,-78.594c-11.75,-16.125 -31.563,-24.531 -51.407,-21.844c-13.093,1.688 -23.5,11.094 -26.187,23.844c-7.719,-11.406 -19.469,-18.813 -32.25,-18.813l-0.688,0c-12.75,0 -24.187,7.375 -32.25,18.813c-2.687,-12.75 -13.093,-22.156 -26.187,-23.844c-19.813,-2.687 -39.313,5.719 -51.063,21.844c-23.843,32.594 -4.374,89.031 37.969,78.594c6.375,-1.688 11.094,-7.719 10.75,-14.438c-0.344,-5.031 -4.031,-9.062 -9.062,-9.75c-5.032,-0.656 -9.75,2.344 -11.406,7.063c-16.782,11.406 -36.282,-21.844 -27.876,-48.032c7.719,-24.843 48.719,-41.656 63.157,-13.437c-2.344,-1.688 -5.375,-2.344 -8.407,-2c-5.718,1 -9.75,6.031 -9.75,11.75c-0.343,5.719 3.688,10.75 9.407,12.094c4.687,1.343 9.75,1 14.093,-1.688c-1.687,6.031 -2.687,12.438 -2.687,19.156c-0,4.032 0.344,7.719 1,11.407c-8.406,-20.157 -32.25,-35.282 -54.406,-23.5c17.468,0.687 31.906,6.718 43,16.781c-10.063,-6.719 -23.188,-8.063 -38.625,1.344c32.906,-5.032 51.718,17.468 54.406,35.593c4.031,27.532 -29.219,23.844 -21.5,11.094c-0,-5.031 -3.688,-9.75 -8.719,-10.75c-5.375,-1 -10.406,2 -12.094,7.063c-1.343,5.375 -0.343,11.406 3.032,16.125c13.437,18.468 57.781,9.062 47.375,-24.844c7.375,9.062 17.468,14.781 28.218,15.781c-6.718,-0.344 -15.125,0.688 -22.843,4.031c-17.469,7.719 -24.532,26.188 -15.782,43c5.375,11.407 15.469,17.282 25.219,16.282l0,17.562l-0.094,5.281l0,304.032l-2.875,-0c-4.375,-0 -7.843,3.75 -7.406,8.187c0.375,3.875 3.844,6.688 7.75,6.688l2.531,-0l0,60.687l-19.031,0l0,10.938l-24.656,-0l-0,-10.907l-24.688,0l0,28.594l24.688,0l-0,30.75l-24.688,0l0,28.594l24.688,-0l-0,-10.938l24.656,0l0,10.938l19.031,-0l0,19.812c0,9.469 7.782,17.157 17.282,17c9.375,-0.156 16.687,-8.187 16.687,-17.562l0,-167.906l2.531,-0c3.875,-0 7.344,-2.844 7.75,-6.688c0.438,-4.437 -3.031,-8.187 -7.406,-8.187l-2.875,-0l0,-299.344c0,-2.031 -0.094,-4.094 -0.312,-6.125l-0,-21.375c10.062,1 17.125,-4.844 22.812,-16.281c8.406,-16.782 1.688,-35.282 -15.781,-43l-0.063,-0.032Zm-32.593,-13.781c-8.407,-2.687 -15.125,-8.719 -19.469,-16.125c-5.719,-8.719 -8.406,-19.812 -8.406,-30.219c-0,-10.406 2.687,-21.5 8.406,-30.562c4.375,-7.063 11.094,-13.438 19.469,-15.781c2.343,-1 4.687,-1.344 7.375,-1.344l0.343,-0c2.344,-0 4.688,0.344 7.375,1.344c8.063,2.343 14.782,8.718 19.157,15.781c5.718,9.062 8.406,19.812 8.406,30.562c-0,10.75 -2.688,21.5 -8.406,30.219c-4.375,7.375 -11.094,13.438 -19.157,16.125c-2.687,0.656 -5.031,1 -7.375,1l-0.343,0c-2.688,0 -5.032,-0.344 -7.375,-1Zm40.312,45.344c-1.344,7.062 -9.406,15.437 -14.094,7.062c-3.343,-7.718 -15.125,-5.718 -18.812,2.344c-3.688,-8.062 -15.438,-10.062 -18.469,-2.344c-5.031,8.407 -13.094,0 -14.094,-7.062c-3.343,-20.5 11.407,-26.531 32.25,-25.188l0.688,0c20.812,-1.343 35.594,4.688 32.594,25.188l-0.063,-0Z" style="fill:url(#_Linear8);fill-rule:nonzero;"></path><defs><linearGradient id="_Linear1" x1="0" y1="0" x2="1" y2="0" gradientUnits="userSpaceOnUse" gradientTransform="matrix(229.313,0,0,229.313,1137.41,480.472)"><stop offset="0" style="stop-color:#dbab7a;stop-opacity:1"></stop><stop offset="0.09" style="stop-color:#dbab7a;stop-opacity:1"></stop><stop offset="0.62" style="stop-color:#cb9664;stop-opacity:1"></stop><stop offset="1" style="stop-color:#89664a;stop-opacity:1"></stop></linearGradient><linearGradient id="_Linear2" x1="0" y1="0" x2="1" y2="0" gradientUnits="userSpaceOnUse" gradientTransform="matrix(3907.28,0,0,3907.28,63277.3,320.035)"><stop offset="0" style="stop-color:#dbab7a;stop-opacity:1"></stop><stop offset="0.09" style="stop-color:#dbab7a;stop-opacity:1"></stop><stop offset="0.62" style="stop-color:#cb9664;stop-opacity:1"></stop><stop offset="1" style="stop-color:#89664a;stop-opacity:1"></stop></linearGradient><linearGradient id="_Linear3" x1="0" y1="0" x2="1" y2="0" gradientUnits="userSpaceOnUse" gradientTransform="matrix(65811.9,0,0,65811.9,274299,320.004)"><stop offset="0" style="stop-color:#dbab7a;stop-opacity:1"></stop><stop offset="0.09" style="stop-color:#dbab7a;stop-opacity:1"></stop><stop offset="0.62" style="stop-color:#cb9664;stop-opacity:1"></stop><stop offset="1" style="stop-color:#89664a;stop-opacity:1"></stop></linearGradient><linearGradient id="_Linear4" x1="0" y1="0" x2="1" y2="0" gradientUnits="userSpaceOnUse" gradientTransform="matrix(7923.83,0,0,7923.83,65529.7,48051.3)"><stop offset="0" style="stop-color:#dbab7a;stop-opacity:1"></stop><stop offset="0.09" style="stop-color:#dbab7a;stop-opacity:1"></stop><stop offset="0.62" style="stop-color:#cb9664;stop-opacity:1"></stop><stop offset="1" style="stop-color:#89664a;stop-opacity:1"></stop></linearGradient><linearGradient id="_Linear5" x1="0" y1="0" x2="1" y2="0" gradientUnits="userSpaceOnUse" gradientTransform="matrix(20820.8,0,0,20820.8,97583.4,64630.6)"><stop offset="0" style="stop-color:#dbab7a;stop-opacity:1"></stop><stop offset="0.09" style="stop-color:#dbab7a;stop-opacity:1"></stop><stop offset="0.62" style="stop-color:#cb9664;stop-opacity:1"></stop><stop offset="1" style="stop-color:#89664a;stop-opacity:1"></stop></linearGradient><linearGradient id="_Linear6" x1="0" y1="0" x2="1" y2="0" gradientUnits="userSpaceOnUse" gradientTransform="matrix(5623.3,0,0,5623.3,51110.5,93723)"><stop offset="0" style="stop-color:#dbab7a;stop-opacity:1"></stop><stop offset="0.09" style="stop-color:#dbab7a;stop-opacity:1"></stop><stop offset="0.62" style="stop-color:#cb9664;stop-opacity:1"></stop><stop offset="1" style="stop-color:#89664a;stop-opacity:1"></stop></linearGradient><linearGradient id="_Linear7" x1="0" y1="0" x2="1" y2="0" gradientUnits="userSpaceOnUse" gradientTransform="matrix(3697.48,0,0,3697.48,38202.3,22885.6)"><stop offset="0" style="stop-color:#dbab7a;stop-opacity:1"></stop><stop offset="0.09" style="stop-color:#dbab7a;stop-opacity:1"></stop><stop offset="0.62" style="stop-color:#cb9664;stop-opacity:1"></stop><stop offset="1" style="stop-color:#89664a;stop-opacity:1"></stop></linearGradient><linearGradient id="_Linear8" x1="0" y1="0" x2="1" y2="0" gradientUnits="userSpaceOnUse" gradientTransform="matrix(18526.6,0,0,18526.6,79434.6,356151)"><stop offset="0" style="stop-color:#dbab7a;stop-opacity:1"></stop><stop offset="0.09" style="stop-color:#dbab7a;stop-opacity:1"></stop><stop offset="0.62" style="stop-color:#cb9664;stop-opacity:1"></stop><stop offset="1" style="stop-color:#89664a;stop-opacity:1"></stop></linearGradient></defs></svg>